HIERARCHY
ROOT Hips
{
	OFFSET 0.000000 0.000000 0.000000
	CHANNELS 6 Xposition Yposition Zposition Xrotation Yrotation Zrotation
	JOINT Chest
	{
		OFFSET 0.000000 9.585900 0.002600
		CHANNELS 3 Xrotation Yrotation Zrotation
		JOINT Chest2
		{
			OFFSET 0.000000 9.601200 -0.005300
			CHANNELS 3 Xrotation Yrotation Zrotation
			JOINT Chest3
			{
				OFFSET 0.000000 9.561800 0.000000
				CHANNELS 3 Xrotation Yrotation Zrotation
				JOINT Chest4
				{
					OFFSET 0.000000 9.552100 0.000000
					CHANNELS 3 Xrotation Yrotation Zrotation
					JOINT Neck
					{
						OFFSET 0.000000 14.453000 0.000000
						CHANNELS 3 Xrotation Yrotation Zrotation
						JOINT Head
						{
							OFFSET 0.000000 8.936500 -0.011300
							CHANNELS 3 Xrotation Yrotation Zrotation
							End Site
							{
								OFFSET 0.000000 0.000000 0.000000
							}
						}
					}
					JOINT RightCollar
					{
						OFFSET -2.921100 9.558500 0.000000
						CHANNELS 3 Xrotation Yrotation Zrotation
						JOINT RightShoulder
						{
							OFFSET -13.519700 0.000000 0.000000
							CHANNELS 3 Xrotation Yrotation Zrotation
							JOINT RightElbow
							{
								OFFSET 0.000000 -29.696600 0.000000
								CHANNELS 3 Xrotation Yrotation Zrotation
								JOINT RightWrist
								{
									OFFSET 0.000000 -24.004700 0.000000
									CHANNELS 3 Xrotation Yrotation Zrotation
									End Site
									{
										OFFSET 0.000000 0.000000 0.000000
									}
								}
							}
						}
					}
					JOINT LeftCollar
					{
						OFFSET 2.921100 9.558500 0.000000
						CHANNELS 3 Xrotation Yrotation Zrotation
						JOINT LeftShoulder
						{
							OFFSET 13.519700 0.000000 0.000000
							CHANNELS 3 Xrotation Yrotation Zrotation
							JOINT LeftElbow
							{
								OFFSET 0.000000 -29.696600 0.000000
								CHANNELS 3 Xrotation Yrotation Zrotation
								JOINT LeftWrist
								{
									OFFSET 0.000000 -24.004700 0.000000
									CHANNELS 3 Xrotation Yrotation Zrotation
									End Site
									{
										OFFSET 0.000000 0.000000 0.000000
									}
								}
							}
						}
					}
				}
			}
		}
	}
	JOINT RightHip
	{
		OFFSET -7.771700 -0.012900 -0.001300
		CHANNELS 3 Xrotation Yrotation Zrotation
		JOINT RightKnee
		{
			OFFSET 0.000000 -40.869801 0.001200
			CHANNELS 3 Xrotation Yrotation Zrotation
			JOINT RightAnkle
			{
				OFFSET 0.000000 -39.717899 0.002100
				CHANNELS 3 Xrotation Yrotation Zrotation
				JOINT RightToe
				{
					OFFSET 0.000000 -4.965400 11.033500
					CHANNELS 3 Xrotation Yrotation Zrotation
					End Site
					{
						OFFSET 0.000000 0.000000 0.000000
					}
				}
			}
		}
	}
	JOINT LeftHip
	{
		OFFSET 7.771700 -0.012900 -0.001300
		CHANNELS 3 Xrotation Yrotation Zrotation
		JOINT LeftKnee
		{
			OFFSET 0.000000 -40.869801 0.001200
			CHANNELS 3 Xrotation Yrotation Zrotation
			JOINT LeftAnkle
			{
				OFFSET 0.000000 -39.717899 0.002100
				CHANNELS 3 Xrotation Yrotation Zrotation
				JOINT LeftToe
				{
					OFFSET 0.000000 -4.965400 11.033500
					CHANNELS 3 Xrotation Yrotation Zrotation
					End Site
					{
						OFFSET 0.000000 0.000000 0.000000
					}
				}
			}
		}
	}
}
MOTION
Frames: 8
Frame Time: 0.032
0.0 0.0 0.0 -148.294212 -2.883994 -179.922291 20.601466 -0.039671 3.541562 3.509932 -1.013258 1.176516 2.728232 -0.285016 0.575118 17.963001 1.796335 2.242335 13.568835 0.034380 -1.082307 -5.834722 9.686117 -4.426226 -5.214488 3.359954 -2.894297 -26.241479 28.240838 -14.718540 -76.962749 35.497326 34.513424 -33.386620 -53.340813 -61.316084 0.918942 -3.738353 -1.164217 -14.267217 0.922666 2.600794 -69.453653 3.052471 -12.476734 -27.203445 3.065025 27.817200 -45.156962 5.275296 -1.570182 68.860171 -2.157416 -5.614740 21.568885 8.273546 9.123062 -2.603124 -0.220413 0.397165 -41.174638 -3.011630 -4.618559 77.895972 3.903176 0.407303 -12.890350 -7.334634 -2.085223 -0.820902 -0.377898 -0.420249
0.0 0.0 0.0 -148.252985 -2.853016 -179.874248 20.594477 -0.009415 3.500343 3.493350 -1.009378 1.161225 2.698095 -0.281341 0.561812 17.945473 1.799693 2.226557 13.555254 0.019398 -1.157575 -5.803183 9.720637 -4.463408 -5.241961 3.356939 -2.987137 -26.216465 28.293367 -14.721677 -77.022404 35.557285 34.517112 -33.387901 -53.283979 -61.361928 0.916474 -3.723908 -1.181667 -14.302249 0.949234 2.541502 -69.498882 3.087282 -12.524872 -27.196261 3.111673 27.808458 -45.182094 5.312914 -1.640712 68.847678 -2.130221 -5.648797 21.586202 8.267687 9.051450 -2.577468 -0.177854 0.364986 -41.199841 -3.003449 -4.660627 77.869532 3.860408 0.366561 -12.861291 -7.301753 -2.056509 -0.792322 -0.337016 -0.427795
0.0 0.0 0.0 -148.314074 -2.868116 -179.884056 20.563992 0.028534 3.534834 3.442150 -0.969595 1.152379 2.621038 -0.241757 0.554123 17.889939 1.834467 2.206314 13.510069 0.072901 -1.118713 -5.857724 9.784616 -4.443683 -5.324645 3.405267 -2.931821 -26.307010 28.389565 -14.700853 -77.076513 35.711869 34.581258 -33.445343 -53.242465 -61.453876 0.834319 -3.683290 -1.176578 -14.368790 1.012794 2.540966 -69.471247 3.121940 -12.446728 -27.279647 3.107296 27.879504 -45.238098 5.370485 -1.583742 68.798597 -2.085720 -5.614451 21.584240 8.339997 9.110593 -2.636689 -0.137402 0.401239 -41.227879 -2.928500 -4.668437 77.833100 3.899358 0.421180 -12.917747 -7.263233 -2.076690 -0.844502 -0.294856 -0.419811
0.0 0.0 0.0 -148.232044 -2.844738 -179.874002 20.609964 0.051843 3.495548 3.511495 -0.949663 1.169826 2.682795 -0.212153 0.575815 17.944686 1.875245 2.218673 13.587562 0.087801 -1.142794 -5.783329 9.796374 -4.474373 -5.274094 3.425732 -2.967254 -26.245943 28.380515 -14.702240 -76.964894 35.683825 34.615737 -33.364378 -53.285974 -61.471942 0.904258 -3.658502 -1.154776 -14.315101 1.028788 2.544325 -69.412344 3.104795 -12.509208 -27.218440 3.110789 27.886821 -45.190120 5.368708 -1.610740 68.848252 -2.054669 -5.646951 21.631086 8.381041 9.070408 -2.564822 -0.121222 0.370310 -41.175416 -2.931895 -4.669665 77.882127 3.930915 0.370830 -12.855222 -7.249939 -2.068513 -0.773187 -0.278207 -0.429405
0.0 0.0 0.0 -148.208548 -2.829970 -179.829974 20.624361 0.053718 3.461716 3.538629 -0.936295 1.198136 2.705856 -0.199208 0.614009 17.963609 1.894160 2.266067 13.583651 0.089832 -1.173742 -5.770530 9.801860 -4.506037 -5.244287 3.442658 -3.004981 -26.217249 28.393271 -14.728376 -76.923981 35.709575 34.646599 -33.310945 -53.312423 -61.385171 0.969893 -3.656111 -1.135812 -14.281921 1.043414 2.545534 -69.374286 3.157098 -12.545711 -27.205465 3.146149 27.871376 -45.182507 5.380802 -1.647786 68.829360 -2.064273 -5.676689 21.645329 8.356795 9.024832 -2.559590 -0.115859 0.334587 -41.177216 -2.946338 -4.644077 77.867428 3.926775 0.337573 -12.851406 -7.250586 -2.027416 -0.767396 -0.274174 -0.429179
0.0 0.0 0.0 -148.286535 -2.875500 -179.909423 20.617064 0.083576 3.551098 3.539773 -0.908432 1.117867 2.709737 -0.162706 0.518499 17.970419 1.913250 2.160934 13.579276 0.143897 -1.080163 -5.794779 9.832687 -4.446114 -5.254999 3.484384 -2.883431 -26.257153 28.452314 -14.690728 -76.845270 35.837313 34.586268 -33.236250 -53.283795 -61.356095 0.951084 -3.627638 -1.219521 -14.272186 1.082304 2.475821 -69.291600 3.118200 -12.449596 -27.244663 3.117795 27.964975 -45.181298 5.389521 -1.555467 68.850178 -1.992197 -5.617145 21.646198 8.406402 9.132265 -2.581832 -0.096014 0.415951 -41.156527 -2.879866 -4.697814 77.891081 4.026695 0.416852 -12.871833 -7.216912 -2.134016 -0.783963 -0.253261 -0.442394
0.0 0.0 0.0 -148.248409 -2.838487 -179.858483 20.596630 0.033927 3.463975 3.542275 -0.935163 1.183946 2.719394 -0.193267 0.606241 17.958309 1.889924 2.232918 13.564854 0.096583 -1.154969 -5.800487 9.778772 -4.519642 -5.230976 3.449501 -2.971296 -26.220826 28.379260 -14.753642 -76.841056 35.728248 34.648252 -33.053416 -53.278283 -61.072512 1.003602 -3.668942 -1.150982 -14.266027 1.050090 2.542737 -69.330785 3.148684 -12.550869 -27.208282 3.132527 27.876160 -45.190444 5.372396 -1.611550 68.834155 -2.079644 -5.663775 21.580246 8.311857 9.041472 -2.586287 -0.126952 0.340041 -41.189722 -2.930304 -4.638260 77.873275 3.944011 0.349014 -12.876479 -7.248227 -2.060476 -0.795356 -0.287786 -0.446429
0.0 0.0 0.0 -148.213234 -2.824520 -179.820084 20.677061 0.107729 3.482105 3.574397 -0.885049 1.225258 2.765735 -0.139091 0.643535 17.996073 1.957018 2.292306 13.586913 0.142929 -1.145267 -5.759182 9.820054 -4.503872 -5.232640 3.486852 -2.974399 -26.186896 28.443081 -14.733708 -76.829376 35.806611 34.654461 -33.045791 -53.284669 -61.045553 0.974612 -3.633292 -1.124822 -14.226726 1.099295 2.579579 -69.349998 3.134612 -12.519160 -27.215264 3.175084 27.933884 -45.174786 5.398739 -1.624762 68.833444 -2.001015 -5.670667 21.655941 8.393450 9.051509 -2.561355 -0.083503 0.357038 -41.161838 -2.919048 -4.621674 77.882830 4.004035 0.345687 -12.854189 -7.217177 -2.012709 -0.761706 -0.239767 -0.413385
